<?xml version="1.0" encoding="UTF-8" standalone="no"?>
<!DOCTYPE svg PUBLIC "-//W3C//DTD SVG 1.1//EN"
 "http://www.w3.org/Graphics/SVG/1.1/DTD/svg11.dtd">
<!-- Generated by graphviz version 2.38.0 (20140413.2041)
 -->
<!-- Title: snakemake_dag Pages: 1 -->
<svg width="458pt" height="268pt"
 viewBox="0.00 0.00 458.00 268.00" xmlns="http://www.w3.org/2000/svg" xmlns:xlink="http://www.w3.org/1999/xlink">
<g id="graph0" class="graph" transform="scale(1 1) rotate(0) translate(4 264)">
<title>snakemake_dag</title>
<polygon fill="white" stroke="none" points="-4,4 -4,-264 454,-264 454,4 -4,4"/>
<!-- 0 -->
<g id="node1" class="node"><title>0</title>
<path fill="none" stroke="#d85656" stroke-width="2" stroke-dasharray="5,2" d="M87,-260C87,-260 12,-260 12,-260 6,-260 0,-254 0,-248 0,-248 0,-228 0,-228 0,-222 6,-216 12,-216 12,-216 87,-216 87,-216 93,-216 99,-222 99,-228 99,-228 99,-248 99,-248 99,-254 93,-260 87,-260"/>
<text text-anchor="middle" x="49.5" y="-247" font-family="sans" font-size="10.00">mash_sketch</text>
<text text-anchor="middle" x="49.5" y="-235" font-family="sans" font-size="10.00">sid: S1</text>
<text text-anchor="middle" x="49.5" y="-223" font-family="sans" font-size="10.00">treatment: Rep1</text>
</g>
<!-- 4 -->
<g id="node5" class="node"><title>4</title>
<path fill="none" stroke="#d6d856" stroke-width="2" stroke-dasharray="5,2" d="M251.5,-180C251.5,-180 197.5,-180 197.5,-180 191.5,-180 185.5,-174 185.5,-168 185.5,-168 185.5,-156 185.5,-156 185.5,-150 191.5,-144 197.5,-144 197.5,-144 251.5,-144 251.5,-144 257.5,-144 263.5,-150 263.5,-156 263.5,-156 263.5,-168 263.5,-168 263.5,-174 257.5,-180 251.5,-180"/>
<text text-anchor="middle" x="224.5" y="-159" font-family="sans" font-size="10.00">mash_paste</text>
</g>
<!-- 0&#45;&gt;4 -->
<g id="edge2" class="edge"><title>0&#45;&gt;4</title>
<path fill="none" stroke="grey" stroke-width="2" d="M99.1799,-215.993C123.266,-205.807 152.087,-193.62 176.014,-183.503"/>
<polygon fill="grey" stroke="grey" stroke-width="2" points="177.413,-186.711 185.261,-179.593 174.687,-180.264 177.413,-186.711"/>
</g>
<!-- 1 -->
<g id="node2" class="node"><title>1</title>
<path fill="none" stroke="#d85656" stroke-width="2" stroke-dasharray="5,2" d="M204,-260C204,-260 129,-260 129,-260 123,-260 117,-254 117,-248 117,-248 117,-228 117,-228 117,-222 123,-216 129,-216 129,-216 204,-216 204,-216 210,-216 216,-222 216,-228 216,-228 216,-248 216,-248 216,-254 210,-260 204,-260"/>
<text text-anchor="middle" x="166.5" y="-247" font-family="sans" font-size="10.00">mash_sketch</text>
<text text-anchor="middle" x="166.5" y="-235" font-family="sans" font-size="10.00">sid: S2</text>
<text text-anchor="middle" x="166.5" y="-223" font-family="sans" font-size="10.00">treatment: Rep1</text>
</g>
<!-- 1&#45;&gt;4 -->
<g id="edge3" class="edge"><title>1&#45;&gt;4</title>
<path fill="none" stroke="grey" stroke-width="2" d="M182.965,-215.993C189.735,-207.356 197.632,-197.279 204.713,-188.246"/>
<polygon fill="grey" stroke="grey" stroke-width="2" points="207.515,-190.344 210.929,-180.315 202.005,-186.026 207.515,-190.344"/>
</g>
<!-- 2 -->
<g id="node3" class="node"><title>2</title>
<path fill="none" stroke="#d85656" stroke-width="2" stroke-dasharray="5,2" d="M321,-260C321,-260 246,-260 246,-260 240,-260 234,-254 234,-248 234,-248 234,-228 234,-228 234,-222 240,-216 246,-216 246,-216 321,-216 321,-216 327,-216 333,-222 333,-228 333,-228 333,-248 333,-248 333,-254 327,-260 321,-260"/>
<text text-anchor="middle" x="283.5" y="-247" font-family="sans" font-size="10.00">mash_sketch</text>
<text text-anchor="middle" x="283.5" y="-235" font-family="sans" font-size="10.00">sid: G2</text>
<text text-anchor="middle" x="283.5" y="-223" font-family="sans" font-size="10.00">treatment: Rep1</text>
</g>
<!-- 2&#45;&gt;4 -->
<g id="edge4" class="edge"><title>2&#45;&gt;4</title>
<path fill="none" stroke="grey" stroke-width="2" d="M266.751,-215.993C259.865,-207.356 251.831,-197.279 244.629,-188.246"/>
<polygon fill="grey" stroke="grey" stroke-width="2" points="247.276,-185.952 238.305,-180.315 241.802,-190.316 247.276,-185.952"/>
</g>
<!-- 3 -->
<g id="node4" class="node"><title>3</title>
<path fill="none" stroke="#56d8d8" stroke-width="2" stroke-dasharray="5,2" d="M246.5,-108C246.5,-108 202.5,-108 202.5,-108 196.5,-108 190.5,-102 190.5,-96 190.5,-96 190.5,-84 190.5,-84 190.5,-78 196.5,-72 202.5,-72 202.5,-72 246.5,-72 246.5,-72 252.5,-72 258.5,-78 258.5,-84 258.5,-84 258.5,-96 258.5,-96 258.5,-102 252.5,-108 246.5,-108"/>
<text text-anchor="middle" x="224.5" y="-87" font-family="sans" font-size="10.00">mash_dist</text>
</g>
<!-- 6 -->
<g id="node7" class="node"><title>6</title>
<path fill="none" stroke="#59d856" stroke-width="2" stroke-dasharray="5,2" d="M246,-36C246,-36 203,-36 203,-36 197,-36 191,-30 191,-24 191,-24 191,-12 191,-12 191,-6 197,-0 203,-0 203,-0 246,-0 246,-0 252,-0 258,-6 258,-12 258,-12 258,-24 258,-24 258,-30 252,-36 246,-36"/>
<text text-anchor="middle" x="224.5" y="-15" font-family="sans" font-size="10.00">draw_tree</text>
</g>
<!-- 3&#45;&gt;6 -->
<g id="edge6" class="edge"><title>3&#45;&gt;6</title>
<path fill="none" stroke="grey" stroke-width="2" d="M224.5,-71.6966C224.5,-63.9827 224.5,-54.7125 224.5,-46.1124"/>
<polygon fill="grey" stroke="grey" stroke-width="2" points="228,-46.1043 224.5,-36.1043 221,-46.1044 228,-46.1043"/>
</g>
<!-- 4&#45;&gt;3 -->
<g id="edge1" class="edge"><title>4&#45;&gt;3</title>
<path fill="none" stroke="grey" stroke-width="2" d="M224.5,-143.697C224.5,-135.983 224.5,-126.712 224.5,-118.112"/>
<polygon fill="grey" stroke="grey" stroke-width="2" points="228,-118.104 224.5,-108.104 221,-118.104 228,-118.104"/>
</g>
<!-- 5 -->
<g id="node6" class="node"><title>5</title>
<path fill="none" stroke="#d85656" stroke-width="2" stroke-dasharray="5,2" d="M438,-260C438,-260 363,-260 363,-260 357,-260 351,-254 351,-248 351,-248 351,-228 351,-228 351,-222 357,-216 363,-216 363,-216 438,-216 438,-216 444,-216 450,-222 450,-228 450,-228 450,-248 450,-248 450,-254 444,-260 438,-260"/>
<text text-anchor="middle" x="400.5" y="-247" font-family="sans" font-size="10.00">mash_sketch</text>
<text text-anchor="middle" x="400.5" y="-235" font-family="sans" font-size="10.00">sid: G1b</text>
<text text-anchor="middle" x="400.5" y="-223" font-family="sans" font-size="10.00">treatment: Rep1</text>
</g>
<!-- 5&#45;&gt;4 -->
<g id="edge5" class="edge"><title>5&#45;&gt;4</title>
<path fill="none" stroke="grey" stroke-width="2" d="M350.536,-215.993C326.223,-205.77 297.112,-193.53 272.996,-183.391"/>
<polygon fill="grey" stroke="grey" stroke-width="2" points="274.255,-180.123 263.68,-179.473 271.541,-186.576 274.255,-180.123"/>
</g>
</g>
</svg>
