<?xml version="1.0" encoding="UTF-8" standalone="no"?>
<!DOCTYPE svg PUBLIC "-//W3C//DTD SVG 1.1//EN"
 "http://www.w3.org/Graphics/SVG/1.1/DTD/svg11.dtd">
<!-- Generated by graphviz version 2.38.0 (20140413.2041)
 -->
<!-- Title: snakemake_dag Pages: 1 -->
<svg width="390pt" height="188pt"
 viewBox="0.00 0.00 390.00 188.00" xmlns="http://www.w3.org/2000/svg" xmlns:xlink="http://www.w3.org/1999/xlink">
<g id="graph0" class="graph" transform="scale(1 1) rotate(0) translate(4 184)">
<title>snakemake_dag</title>
<polygon fill="white" stroke="none" points="-4,4 -4,-184 386,-184 386,4 -4,4"/>
<!-- 0 -->
<g id="node1" class="node"><title>0</title>
<path fill="none" stroke="#d85656" stroke-width="2" stroke-dasharray="5,2" d="M70,-180C70,-180 12,-180 12,-180 6,-180 0,-174 0,-168 0,-168 0,-156 0,-156 0,-150 6,-144 12,-144 12,-144 70,-144 70,-144 76,-144 82,-150 82,-156 82,-156 82,-168 82,-168 82,-174 76,-180 70,-180"/>
<text text-anchor="middle" x="41" y="-165" font-family="sans" font-size="10.00">mash_sketch</text>
<text text-anchor="middle" x="41" y="-153" font-family="sans" font-size="10.00">sid: S2</text>
</g>
<!-- 4 -->
<g id="node5" class="node"><title>4</title>
<path fill="none" stroke="#afd856" stroke-width="2" stroke-dasharray="5,2" d="M218,-108C218,-108 164,-108 164,-108 158,-108 152,-102 152,-96 152,-96 152,-84 152,-84 152,-78 158,-72 164,-72 164,-72 218,-72 218,-72 224,-72 230,-78 230,-84 230,-84 230,-96 230,-96 230,-102 224,-108 218,-108"/>
<text text-anchor="middle" x="191" y="-87" font-family="sans" font-size="10.00">mash_paste</text>
</g>
<!-- 0&#45;&gt;4 -->
<g id="edge2" class="edge"><title>0&#45;&gt;4</title>
<path fill="none" stroke="grey" stroke-width="2" d="M77.6941,-143.876C98.0178,-134.392 123.471,-122.513 145.102,-112.419"/>
<polygon fill="grey" stroke="grey" stroke-width="2" points="146.843,-115.469 154.425,-108.068 143.883,-109.126 146.843,-115.469"/>
</g>
<!-- 1 -->
<g id="node2" class="node"><title>1</title>
<path fill="none" stroke="#d85656" stroke-width="2" stroke-dasharray="5,2" d="M170,-180C170,-180 112,-180 112,-180 106,-180 100,-174 100,-168 100,-168 100,-156 100,-156 100,-150 106,-144 112,-144 112,-144 170,-144 170,-144 176,-144 182,-150 182,-156 182,-156 182,-168 182,-168 182,-174 176,-180 170,-180"/>
<text text-anchor="middle" x="141" y="-165" font-family="sans" font-size="10.00">mash_sketch</text>
<text text-anchor="middle" x="141" y="-153" font-family="sans" font-size="10.00">sid: S1</text>
</g>
<!-- 1&#45;&gt;4 -->
<g id="edge3" class="edge"><title>1&#45;&gt;4</title>
<path fill="none" stroke="grey" stroke-width="2" d="M153.36,-143.697C159.233,-135.474 166.369,-125.483 172.842,-116.421"/>
<polygon fill="grey" stroke="grey" stroke-width="2" points="175.818,-118.276 178.783,-108.104 170.122,-114.207 175.818,-118.276"/>
</g>
<!-- 2 -->
<g id="node3" class="node"><title>2</title>
<path fill="none" stroke="#d85656" stroke-width="2" stroke-dasharray="5,2" d="M270,-180C270,-180 212,-180 212,-180 206,-180 200,-174 200,-168 200,-168 200,-156 200,-156 200,-150 206,-144 212,-144 212,-144 270,-144 270,-144 276,-144 282,-150 282,-156 282,-156 282,-168 282,-168 282,-174 276,-180 270,-180"/>
<text text-anchor="middle" x="241" y="-165" font-family="sans" font-size="10.00">mash_sketch</text>
<text text-anchor="middle" x="241" y="-153" font-family="sans" font-size="10.00">sid: G2</text>
</g>
<!-- 2&#45;&gt;4 -->
<g id="edge5" class="edge"><title>2&#45;&gt;4</title>
<path fill="none" stroke="grey" stroke-width="2" d="M228.64,-143.697C222.767,-135.474 215.631,-125.483 209.158,-116.421"/>
<polygon fill="grey" stroke="grey" stroke-width="2" points="211.878,-114.207 203.217,-108.104 206.182,-118.276 211.878,-114.207"/>
</g>
<!-- 3 -->
<g id="node4" class="node"><title>3</title>
<path fill="none" stroke="#56d8a9" stroke-width="2" stroke-dasharray="5,2" d="M213,-36C213,-36 169,-36 169,-36 163,-36 157,-30 157,-24 157,-24 157,-12 157,-12 157,-6 163,-0 169,-0 169,-0 213,-0 213,-0 219,-0 225,-6 225,-12 225,-12 225,-24 225,-24 225,-30 219,-36 213,-36"/>
<text text-anchor="middle" x="191" y="-15" font-family="sans" font-size="10.00">mash_dist</text>
</g>
<!-- 4&#45;&gt;3 -->
<g id="edge1" class="edge"><title>4&#45;&gt;3</title>
<path fill="none" stroke="grey" stroke-width="2" d="M191,-71.6966C191,-63.9827 191,-54.7125 191,-46.1124"/>
<polygon fill="grey" stroke="grey" stroke-width="2" points="194.5,-46.1043 191,-36.1043 187.5,-46.1044 194.5,-46.1043"/>
</g>
<!-- 5 -->
<g id="node6" class="node"><title>5</title>
<path fill="none" stroke="#d85656" stroke-width="2" stroke-dasharray="5,2" d="M370,-180C370,-180 312,-180 312,-180 306,-180 300,-174 300,-168 300,-168 300,-156 300,-156 300,-150 306,-144 312,-144 312,-144 370,-144 370,-144 376,-144 382,-150 382,-156 382,-156 382,-168 382,-168 382,-174 376,-180 370,-180"/>
<text text-anchor="middle" x="341" y="-165" font-family="sans" font-size="10.00">mash_sketch</text>
<text text-anchor="middle" x="341" y="-153" font-family="sans" font-size="10.00">sid: G1b</text>
</g>
<!-- 5&#45;&gt;4 -->
<g id="edge4" class="edge"><title>5&#45;&gt;4</title>
<path fill="none" stroke="grey" stroke-width="2" d="M304.306,-143.876C283.982,-134.392 258.529,-122.513 236.898,-112.419"/>
<polygon fill="grey" stroke="grey" stroke-width="2" points="238.117,-109.126 227.575,-108.068 235.157,-115.469 238.117,-109.126"/>
</g>
</g>
</svg>
